<svg width="28" height="28" viewBox="0 0 28 28" fill="none" xmlns="http://www.w3.org/2000/svg">
<path d="M13.9998 22.1667C14.2856 22.1667 14.5614 22.2716 14.7749 22.4615C14.9885 22.6514 15.1249 22.913 15.1583 23.1968L15.1665 23.3333V24.5C15.1662 24.7974 15.0523 25.0834 14.8482 25.2996C14.6441 25.5158 14.3651 25.6459 14.0682 25.6634C13.7714 25.6808 13.4791 25.5842 13.251 25.3934C13.023 25.2025 12.8765 24.9318 12.8413 24.6365L12.8332 24.5V23.3333C12.8332 23.0239 12.9561 22.7272 13.1749 22.5084C13.3937 22.2896 13.6904 22.1667 13.9998 22.1667ZM21.365 19.7283L21.4747 19.8252L22.2913 20.6418C22.5006 20.8518 22.6221 21.1335 22.6311 21.4298C22.6402 21.7261 22.5361 22.0147 22.3401 22.237C22.144 22.4593 21.8707 22.5987 21.5756 22.6268C21.2805 22.6549 20.9858 22.5697 20.7513 22.3883L20.6417 22.2915L19.825 21.4748C19.6237 21.2739 19.5027 21.0063 19.4849 20.7223C19.467 20.4384 19.5535 20.1578 19.7281 19.9332C19.9027 19.7086 20.1533 19.5555 20.4329 19.5027C20.7124 19.45 21.0016 19.5012 21.246 19.6467L21.365 19.7283ZM8.17468 19.8252C8.37555 20.0261 8.49622 20.2934 8.51405 20.5769C8.53188 20.8604 8.44564 21.1407 8.27151 21.3652L8.17468 21.4748L7.35801 22.2915C7.14806 22.5007 6.86634 22.6222 6.57007 22.6313C6.27379 22.6403 5.98518 22.5363 5.76286 22.3402C5.54053 22.1442 5.40116 21.8709 5.37305 21.5758C5.34494 21.2807 5.4302 20.986 5.61151 20.7515L5.70835 20.6418L6.52501 19.8252C6.7438 19.6065 7.04049 19.4836 7.34985 19.4836C7.65921 19.4836 7.9559 19.6065 8.17468 19.8252ZM4.66651 12.8333C4.96387 12.8337 5.24988 12.9475 5.46611 13.1517C5.68234 13.3558 5.81245 13.6348 5.82988 13.9316C5.84731 14.2285 5.75073 14.5208 5.55987 14.7488C5.36902 14.9768 5.09829 15.1234 4.80301 15.1585L4.66651 15.1667H3.49985C3.20249 15.1663 2.91648 15.0525 2.70025 14.8484C2.48403 14.6442 2.35391 14.3652 2.33648 14.0684C2.31905 13.7715 2.41563 13.4792 2.60649 13.2512C2.79734 13.0232 3.06807 12.8766 3.36335 12.8415L3.49985 12.8333H4.66651ZM24.4998 12.8333C24.7972 12.8337 25.0832 12.9475 25.2994 13.1517C25.5157 13.3558 25.6458 13.6348 25.6632 13.9316C25.6806 14.2285 25.5841 14.5208 25.3932 14.7488C25.2023 14.9768 24.9316 15.1234 24.6363 15.1585L24.4998 15.1667H23.3332C23.0358 15.1663 22.7498 15.0525 22.5336 14.8484C22.3174 14.6442 22.1872 14.3652 22.1698 14.0684C22.1524 13.7715 22.249 13.4792 22.4398 13.2512C22.6307 13.0232 22.9014 12.8766 23.1967 12.8415L23.3332 12.8333H24.4998ZM7.24835 5.61168L7.35801 5.70851L8.17468 6.52518C8.38392 6.73513 8.5054 7.01685 8.51445 7.31312C8.52349 7.6094 8.41943 7.89801 8.22339 8.12033C8.02735 8.34266 7.75404 8.48203 7.45896 8.51014C7.16388 8.53825 6.86917 8.45299 6.63468 8.27168L6.52501 8.17484L5.70835 7.35818C5.50778 7.15714 5.38743 6.88985 5.36986 6.60641C5.35228 6.32298 5.43868 6.04287 5.61287 5.81859C5.78706 5.59431 6.03706 5.44126 6.31603 5.38813C6.59499 5.33501 6.88375 5.38545 7.12818 5.53001L7.24835 5.61168ZM22.2913 5.70851C22.4922 5.9094 22.6129 6.17668 22.6307 6.46022C22.6485 6.74375 22.5623 7.02404 22.3882 7.24851L22.2913 7.35818L21.4747 8.17484C21.2647 8.38408 20.983 8.50556 20.6867 8.51461C20.3905 8.52366 20.1018 8.41959 19.8795 8.22355C19.6572 8.02751 19.5178 7.7542 19.4897 7.45912C19.4616 7.16405 19.5469 6.86933 19.7282 6.63484L19.825 6.52518L20.6417 5.70851C20.8605 5.48979 21.1572 5.36693 21.4665 5.36693C21.7759 5.36693 22.0726 5.48979 22.2913 5.70851ZM13.9998 2.33334C14.2856 2.33338 14.5614 2.43829 14.7749 2.62818C14.9885 2.81806 15.1249 3.07972 15.1583 3.36351L15.1665 3.50001V4.66668C15.1662 4.96404 15.0523 5.25005 14.8482 5.46627C14.6441 5.6825 14.3651 5.81262 14.0682 5.83004C13.7714 5.84747 13.4791 5.75089 13.251 5.56003C13.023 5.36918 12.8765 5.09846 12.8413 4.80318L12.8332 4.66668V3.50001C12.8332 3.19059 12.9561 2.89384 13.1749 2.67505C13.3937 2.45626 13.6904 2.33334 13.9998 2.33334ZM13.9998 8.16668C15.1428 8.16661 16.2606 8.50231 17.2144 9.13209C18.1682 9.76187 18.916 10.658 19.3648 11.7091C19.8137 12.7602 19.9439 13.9201 19.7392 15.0445C19.5346 16.169 19.0041 17.2086 18.2136 18.0342C17.4232 18.8597 16.4077 19.4349 15.2931 19.6882C14.1786 19.9416 13.0142 19.8619 11.9446 19.4592C10.8749 19.0564 9.94718 18.3483 9.27655 17.4227C8.60591 16.4972 8.22195 15.3951 8.17235 14.2532L8.16651 14L8.17235 13.7468C8.23759 12.2451 8.88006 10.8264 9.96577 9.78678C11.0515 8.74714 12.4966 8.16676 13.9998 8.16668Z" fill="black"/>
</svg>
