<svg width="24" height="24" viewBox="0 0 24 24" fill="none" xmlns="http://www.w3.org/2000/svg">
<path fill-rule="evenodd" clip-rule="evenodd" d="M11.675 2.01503C11.5413 1.9913 11.4042 1.99504 11.272 2.02603C6.09 2.40003 2 6.72203 2 12C2 17.523 6.477 22 12 22C16.356 22 20.058 19.216 21.43 15.333C21.4854 15.1761 21.5008 15.0077 21.4747 14.8433C21.4486 14.6789 21.3819 14.5236 21.2806 14.3915C21.1793 14.2594 21.0466 14.1547 20.8946 14.0868C20.7425 14.019 20.576 13.9902 20.41 14.003C20.33 14.009 20.305 14.008 20.283 14.008H20.282L20.254 14.006C20.1694 14.0019 20.0847 13.9999 20 14C17.8783 14 15.8434 13.1572 14.3431 11.6569C12.8429 10.1566 12 8.12176 12 6.00003C12 5.04803 12.121 4.24803 12.404 3.44203C12.4673 3.30822 12.5001 3.16204 12.5 3.01403V3.00003C12.5001 2.76508 12.4175 2.53761 12.2666 2.3575C12.1158 2.17739 11.9063 2.05614 11.675 2.01503Z" fill="#141414"/>
</svg>
